<svg id="Layer_1" data-name="Layer 1" xmlns="http://www.w3.org/2000/svg" viewBox="0 0 1440 1056"><defs><style>.cls-1,.cls-2,.cls-5,.cls-7{fill:none;}.cls-1{stroke:#fff200;}.cls-1,.cls-2,.cls-3,.cls-5,.cls-7{stroke-miterlimit:10;stroke-width:10px;}.cls-1,.cls-2,.cls-5,.cls-6,.cls-7{opacity:0.5;}.cls-2{stroke:#ed1c24;}.cls-3{fill:#fff;}.cls-3,.cls-5{stroke:#ec008c;}.cls-4{font-size:234.63px;fill:#231f20;font-family:Helvetica-BoldOblique, Helvetica;font-weight:700;font-style:oblique;}.cls-6{fill:#006838;}.cls-7{stroke:#27aae1;}</style></defs><rect class="cls-1" x="208.46" y="528.02" width="142.37" height="142.37" rx="71.19" transform="translate(-381.32 579.87) rotate(-63.31)"/><rect class="cls-2" x="1143.5" y="59.98" width="142.37" height="142.37" rx="20.82" transform="translate(551.85 1157.48) rotate(-63.31)"/><rect class="cls-3" x="308.33" y="267.67" width="823.34" height="520.66"/><text class="cls-4" transform="translate(452.72 695.69)">Coming...</text><path class="cls-5" d="M985.55,985.9l70.71-70.71m63.66,70.71-70.55-70.55"/><path class="cls-5" d="M1200.22,898.46l-70.71,70.71m-63.66-70.71L1136.4,969"/><circle class="cls-6" cx="405.18" cy="-0.9" r="15"/><circle class="cls-6" cx="436.44" cy="18.87" r="15"/><circle class="cls-6" cx="324.24" cy="-11.35" r="15"/><circle class="cls-6" cx="355.5" cy="8.43" r="15"/><circle class="cls-6" cx="386.76" cy="28.21" r="15"/><circle class="cls-6" cx="418.02" cy="47.98" r="15"/><circle class="cls-6" cx="305.83" cy="17.76" r="15"/><circle class="cls-6" cx="337.09" cy="37.54" r="15"/><circle class="cls-6" cx="368.34" cy="57.32" r="15"/><circle class="cls-6" cx="399.6" cy="77.09" r="15"/><circle class="cls-6" cx="287.41" cy="46.88" r="15"/><circle class="cls-6" cx="318.67" cy="66.65" r="15"/><circle class="cls-6" cx="349.93" cy="86.43" r="15"/><circle class="cls-6" cx="381.18" cy="106.2" r="15"/><text class="cls-4" transform="translate(105.28 505.7)">More</text><path class="cls-7" d="M284.83,932.75l10.43,180.47a23.38,23.38,0,0,0,36.18,18.19l151.07-99.26a23.38,23.38,0,0,0-2.33-40.43l-161.51-81.2A23.37,23.37,0,0,0,284.83,932.75Z"/></svg>